<?xml version="1.0" standalone="no"?>
<!DOCTYPE svg PUBLIC "-//W3C//DTD SVG 20010904//EN"
 "http://www.w3.org/TR/2001/REC-SVG-20010904/DTD/svg10.dtd">
<svg version="1.0" xmlns="http://www.w3.org/2000/svg"
 width="330.000000pt" height="330.000000pt" viewBox="0 0 330.000000 330.000000"
 preserveAspectRatio="xMidYMid meet">
<metadata>
Created by potrace 1.11, written by Peter Selinger 2001-2013
</metadata>
<g transform="translate(0.000000,330.000000) scale(0.100000,-0.100000)"
fill="#000000" stroke="none">
<path d="M1628 2595 c-2 -2 -28 -6 -58 -9 -252 -30 -501 -188 -646 -411 l-52
-80 -73 -19 c-70 -18 -181 -68 -207 -93 -7 -7 -16 -13 -20 -13 -11 0 -116
-102 -150 -146 -173 -225 -186 -553 -31 -795 97 -151 241 -256 419 -305 60
-16 133 -18 871 -19 626 -1 820 2 870 12 296 60 489 367 414 657 -42 160 -160
302 -300 360 -45 19 -55 31 -55 67 0 53 -41 187 -84 274 -155 314 -454 508
-798 519 -54 2 -99 2 -100 1z m247 -230 c201 -54 367 -188 459 -371 44 -88 64
-163 75 -277 10 -102 28 -131 95 -147 115 -28 208 -106 246 -207 69 -185 -29
-380 -220 -437 -46 -14 -151 -16 -824 -15 -502 0 -788 3 -821 10 -148 32 -286
141 -353 279 -21 43 -42 142 -42 196 0 127 54 263 138 348 76 77 220 146 306
146 44 0 93 33 110 74 24 57 84 145 139 204 46 48 155 132 172 132 4 0 19 9
33 19 15 10 30 19 35 20 4 0 31 8 61 16 30 9 74 18 97 21 24 3 45 7 47 9 9 9
194 -6 247 -20z"/>
<path d="M1657 2130 c-107 -19 -163 -142 -108 -236 l22 -36 -31 -47 c-17 -25
-41 -59 -54 -75 -22 -27 -26 -28 -56 -17 -18 6 -52 11 -75 11 -91 0 -161 -44
-201 -126 -22 -44 -25 -63 -21 -107 11 -123 100 -207 219 -207 67 0 123 26
166 75 l33 37 42 -17 c145 -62 132 -51 133 -106 3 -131 169 -194 267 -101 98
94 28 275 -108 275 -45 0 -100 -25 -126 -56 l-17 -21 -86 34 -87 35 4 39 c6
50 -16 126 -47 163 l-23 28 54 77 c48 69 56 76 77 69 36 -14 113 -4 144 19 39
29 64 75 67 124 6 105 -84 184 -188 166z m89 -106 c22 -21 25 -31 19 -62 -11
-61 -64 -86 -117 -55 -36 21 -49 55 -36 92 20 56 91 69 134 25z m-326 -392
c66 -33 92 -121 56 -190 -38 -74 -142 -96 -208 -44 -60 46 -74 116 -36 183 36
65 117 87 188 51z m519 -288 c21 -27 26 -59 15 -89 -7 -19 -55 -45 -81 -45
-29 1 -64 37 -69 72 -13 77 87 123 135 62z"/>
</g>
</svg>
